# xmcd
#
# Track frame offsets: 
#        150
#        28341
#        48749
#        63953
#        73685
#        85195
#        118284
#        133886
#        152379
#        172730
#        186934
#        208544
#        227273
#        259597
#        277647
#
# Disc length: 4049 seconds
#
# Revision: 0
# Processed by: cddbd v1.5.2PL0 Copyright (c) Steve Scherf et al.
# Submitted via: ExactAudioCopyFreeDBPlugin 1.0
#
DISCID=ca0fcf0f
DTITLE=Duke Robillard - The Unheard Duke Robillard Tapes Volume 1
DYEAR=2006
DGENRE=Blues
TTITLE0=Pony Blues
TTITLE1=I'm Stickin With You Baby
TTITLE2=Gypsy Woman
TTITLE3=World Radio Theme
TTITLE4=The Change Is On
TTITLE5=The Return Of Duke's Mood
TTITLE6=I'd Rather Drink Muddy Water
TTITLE7=Minor For McDonough
TTITLE8=Minor For McDonough (Gypsy Intro)
TTITLE9=I'm In Cahoots With You
TTITLE10=I Live The Life I Love
TTITLE11=Exalted Lover
TTITLE12=Something To Remember You By
TTITLE13=I Tried
TTITLE14=Pony Blues
EXTD=
EXTT0=
EXTT1=
EXTT2=
EXTT3=
EXTT4=
EXTT5=
EXTT6=
EXTT7=
EXTT8=
EXTT9=
EXTT10=
EXTT11=
EXTT12=
EXTT13=
EXTT14=
PLAYORDER=
